<svg width="840" height="720" viewBox="0 0 840 720" fill="none" xmlns="http://www.w3.org/2000/svg">
  <rect width="840" height="720" rx="48" fill="#071C45"/>
  <rect x="88" y="116" width="664" height="488" rx="34" fill="url(#paint0_linear_60_22)" fill-opacity="0.22" stroke="#EAF8FF" stroke-opacity="0.16"/>
  <rect x="132" y="162" width="576" height="398" rx="28" fill="#081E4C" fill-opacity="0.82" stroke="#49D4F7" stroke-opacity="0.24"/>
  <rect x="176" y="210" width="188" height="124" rx="22" fill="url(#paint1_linear_60_22)" fill-opacity="0.28"/>
  <rect x="392" y="210" width="272" height="54" rx="18" fill="#EAF8FF" fill-opacity="0.08"/>
  <rect x="392" y="286" width="230" height="16" rx="8" fill="#49D4F7" fill-opacity="0.38"/>
  <rect x="392" y="322" width="186" height="16" rx="8" fill="#EAF8FF" fill-opacity="0.18"/>
  <rect x="176" y="372" width="488" height="132" rx="24" fill="#EAF8FF" fill-opacity="0.06"/>
  <path d="M224 452C224 418.863 250.863 392 284 392H388C421.137 392 448 418.863 448 452V452C448 485.137 421.137 512 388 512H284C250.863 512 224 485.137 224 452V452Z" fill="url(#paint2_linear_60_22)"/>
  <circle cx="532" cy="436" r="46" fill="#49D4F7" fill-opacity="0.18"/>
  <circle cx="598" cy="462" r="26" fill="#49D4F7" fill-opacity="0.34"/>
  <circle cx="258" cy="236" r="18" fill="#49D4F7"/>
  <circle cx="620" cy="124" r="9" fill="#49D4F7"/>
  <circle cx="688" cy="558" r="12" fill="#49D4F7"/>
  <defs>
    <linearGradient id="paint0_linear_60_22" x1="88" y1="116" x2="752" y2="604" gradientUnits="userSpaceOnUse">
      <stop stop-color="#49D4F7"/>
      <stop offset="1" stop-color="#0E3F8A"/>
    </linearGradient>
    <linearGradient id="paint1_linear_60_22" x1="176" y1="210" x2="364" y2="334" gradientUnits="userSpaceOnUse">
      <stop stop-color="#49D4F7"/>
      <stop offset="1" stop-color="#0E3F8A"/>
    </linearGradient>
    <linearGradient id="paint2_linear_60_22" x1="224" y1="392" x2="448" y2="512" gradientUnits="userSpaceOnUse">
      <stop stop-color="#49D4F7"/>
      <stop offset="1" stop-color="#14386D"/>
    </linearGradient>
  </defs>
</svg>
