<svg width="780" height="680" viewBox="0 0 780 680" fill="none" xmlns="http://www.w3.org/2000/svg">
  <rect width="780" height="680" rx="44" fill="#071C45"/>
  <circle cx="392" cy="340" r="188" stroke="#49D4F7" stroke-opacity="0.22" stroke-width="2"/>
  <circle cx="392" cy="340" r="128" stroke="#49D4F7" stroke-opacity="0.34" stroke-width="2"/>
  <circle cx="392" cy="340" r="78" fill="url(#paint0_radial_80_18)"/>
  <rect x="160" y="128" width="460" height="424" rx="34" fill="url(#paint1_linear_80_18)" fill-opacity="0.16" stroke="#EAF8FF" stroke-opacity="0.16"/>
  <rect x="210" y="190" width="360" height="110" rx="22" fill="#EAF8FF" fill-opacity="0.08"/>
  <rect x="210" y="330" width="360" height="160" rx="22" fill="#EAF8FF" fill-opacity="0.05"/>
  <rect x="242" y="224" width="190" height="18" rx="9" fill="#49D4F7" fill-opacity="0.42"/>
  <rect x="242" y="258" width="238" height="14" rx="7" fill="#EAF8FF" fill-opacity="0.2"/>
  <rect x="242" y="364" width="122" height="14" rx="7" fill="#49D4F7" fill-opacity="0.42"/>
  <rect x="242" y="396" width="292" height="14" rx="7" fill="#EAF8FF" fill-opacity="0.2"/>
  <rect x="242" y="428" width="248" height="14" rx="7" fill="#EAF8FF" fill-opacity="0.2"/>
  <circle cx="578" cy="226" r="14" fill="#49D4F7"/>
  <circle cx="162" cy="378" r="10" fill="#49D4F7"/>
  <circle cx="614" cy="510" r="12" fill="#49D4F7"/>
  <path d="M578 226L538 246" stroke="#49D4F7" stroke-opacity="0.64" stroke-width="2"/>
  <path d="M162 378L210 378" stroke="#49D4F7" stroke-opacity="0.64" stroke-width="2"/>
  <path d="M614 510L570 456" stroke="#49D4F7" stroke-opacity="0.64" stroke-width="2"/>
  <defs>
    <radialGradient id="paint0_radial_80_18" cx="0" cy="0" r="1" gradientUnits="userSpaceOnUse" gradientTransform="translate(392 340) rotate(90) scale(78)">
      <stop stop-color="#49D4F7"/>
      <stop offset="1" stop-color="#0E3F8A"/>
    </radialGradient>
    <linearGradient id="paint1_linear_80_18" x1="160" y1="128" x2="620" y2="552" gradientUnits="userSpaceOnUse">
      <stop stop-color="#49D4F7"/>
      <stop offset="1" stop-color="#0E3F8A"/>
    </linearGradient>
  </defs>
</svg>
