<svg width="820" height="620" viewBox="0 0 820 620" fill="none" xmlns="http://www.w3.org/2000/svg">
  <rect width="820" height="620" rx="40" fill="#071C45"/>
  <rect x="88" y="92" width="644" height="436" rx="30" fill="#081E4C" stroke="#EAF8FF" stroke-opacity="0.16"/>
  <rect x="134" y="140" width="222" height="150" rx="24" fill="url(#paint0_linear_90_33)" fill-opacity="0.28"/>
  <rect x="384" y="140" width="302" height="58" rx="18" fill="#EAF8FF" fill-opacity="0.08"/>
  <rect x="384" y="226" width="250" height="16" rx="8" fill="#49D4F7" fill-opacity="0.42"/>
  <rect x="384" y="260" width="188" height="16" rx="8" fill="#EAF8FF" fill-opacity="0.18"/>
  <rect x="134" y="324" width="552" height="154" rx="24" fill="#EAF8FF" fill-opacity="0.05"/>
  <rect x="170" y="358" width="190" height="88" rx="20" fill="#49D4F7" fill-opacity="0.18"/>
  <rect x="392" y="358" width="258" height="16" rx="8" fill="#49D4F7" fill-opacity="0.38"/>
  <rect x="392" y="392" width="214" height="16" rx="8" fill="#EAF8FF" fill-opacity="0.18"/>
  <rect x="392" y="426" width="176" height="16" rx="8" fill="#EAF8FF" fill-opacity="0.18"/>
  <circle cx="134" cy="114" r="10" fill="#49D4F7"/>
  <circle cx="700" cy="510" r="12" fill="#49D4F7"/>
  <circle cx="720" cy="132" r="9" fill="#49D4F7"/>
  <defs>
    <linearGradient id="paint0_linear_90_33" x1="134" y1="140" x2="356" y2="290" gradientUnits="userSpaceOnUse">
      <stop stop-color="#49D4F7"/>
      <stop offset="1" stop-color="#103D88"/>
    </linearGradient>
  </defs>
</svg>
